<svg width="24" height="24" viewBox="0 0 24 24" fill="none" xmlns="http://www.w3.org/2000/svg">
<g clip-path="url(#clip0_5_703)">
<path fill-rule="evenodd" clip-rule="evenodd" d="M12 19.9992C16.4183 19.9992 19.9999 16.4176 19.9999 11.9996C19.9999 7.58161 16.4183 4 12 4C7.58163 4 4 7.58161 4 11.9996C4 16.4176 7.58163 19.9992 12 19.9992ZM12 21.9992C17.5228 21.9992 21.9999 17.5222 21.9999 11.9996C21.9999 6.47696 17.5228 2 12 2C6.47713 2 2 6.47696 2 11.9996C2 17.5222 6.47713 21.9992 12 21.9992ZM11 6.99955C11 6.44726 11.4477 5.99955 12 5.99955C12.5522 5.99955 13 6.44726 13 6.99955V11H15C15.5523 11 16 11.4477 16 12C16 12.5523 15.5523 13 15 13H12C11.4821 13 11.0561 12.6063 11.0051 12.1018C11.0044 12.095 11.0038 12.0882 11.0033 12.0814C11.0011 12.0544 11 12.0271 11 11.9995V6.99955Z" fill="black"/>
</g>
<defs>
<clipPath id="clip0_5_703">
<rect width="24" height="24" fill="white"/>
</clipPath>
</defs>
</svg>
