<svg width="24" height="24" viewBox="0 0 24 24" fill="none" xmlns="http://www.w3.org/2000/svg">
<g clip-path="url(#clip0_5_818)">
<path fill-rule="evenodd" clip-rule="evenodd" d="M6.00004 3.00045C4.34319 3.00045 3.00004 4.3436 3.00004 6.00046V17.9996C3.00004 19.6565 4.34319 20.9996 6.00004 20.9996H18C19.6568 20.9996 21 19.6565 21 17.9996V6.00045C21 4.3436 19.6568 3.00045 18 3.00045H6.00004ZM5.00004 6.00046C5.00004 5.44817 5.44776 5.00045 6.00004 5.00045H18C18.5522 5.00045 19 5.44817 19 6.00045V17.9996C19 18.5519 18.5522 18.9996 18 18.9996H6.00004C5.44776 18.9996 5.00004 18.5519 5.00004 17.9996V6.00046ZM16.5962 8.24267C16.9867 7.85215 17.6198 7.85215 18.0104 8.24267C18.4009 8.6332 18.4009 9.26636 18.0104 9.65689L10.9393 16.728C10.5488 17.1185 9.91561 17.1185 9.52509 16.728L5.98955 13.1924C5.59903 12.8019 5.59903 12.1687 5.98955 11.7782C6.38008 11.3877 7.01324 11.3877 7.40377 11.7782L10.2322 14.6066L16.5962 8.24267Z" fill="black"/>
</g>
<defs>
<clipPath id="clip0_5_818">
<rect width="24" height="24" fill="white"/>
</clipPath>
</defs>
</svg>
