<svg width="24" height="24" viewBox="0 0 24 24" fill="none" xmlns="http://www.w3.org/2000/svg">
<g clip-path="url(#clip0_5_933)">
<path fill-rule="evenodd" clip-rule="evenodd" d="M7.5 1C8.05228 1 8.5 1.44772 8.5 2V3H15.5V2C15.5 1.44772 15.9477 1 16.5 1C17.0523 1 17.5 1.44772 17.5 2V3.02469C20.0267 3.27555 22 5.40733 22 8V17C22 19.7614 19.7614 22 17 22H7C4.23858 22 2 19.7614 2 17V8C2 5.40733 3.97334 3.27555 6.5 3.02469V2C6.5 1.44772 6.94772 1 7.5 1ZM4.17071 7H19.8293C19.4175 5.83481 18.3062 5 17 5H7C5.69378 5 4.58254 5.83481 4.17071 7ZM20 9H4V17C4 18.6569 5.34315 20 7 20H17C18.6569 20 20 18.6569 20 17V9ZM16.7071 10.7929C17.0976 11.1834 17.0976 11.8166 16.7071 12.2071L11.7071 17.2071C11.3166 17.5976 10.6834 17.5976 10.2929 17.2071L7.79289 14.7071C7.40237 14.3166 7.40237 13.6834 7.79289 13.2929C8.18342 12.9024 8.81658 12.9024 9.20711 13.2929L11 15.0858L15.2929 10.7929C15.6834 10.4024 16.3166 10.4024 16.7071 10.7929Z" fill="black"/>
</g>
<defs>
<clipPath id="clip0_5_933">
<rect width="24" height="24" fill="white"/>
</clipPath>
</defs>
</svg>
