<svg width="24" height="24" viewBox="0 0 24 24" fill="none" xmlns="http://www.w3.org/2000/svg">
<g clip-path="url(#clip0_5_242)">
<path fill-rule="evenodd" clip-rule="evenodd" d="M10.0553 10.6788L11.9558 5.76836L17.5382 19.9594L12.4856 19.9687L9.93323 13.6515L7.59856 7.87299C8.04351 7.50616 8.32716 6.95073 8.32716 6.32905C8.32716 5.22448 7.43173 4.32905 6.32716 4.32905C5.22259 4.32905 4.32716 5.22448 4.32716 6.32905C4.32716 7.43362 5.22259 8.32905 6.32716 8.32905C6.45139 8.32905 6.57298 8.31772 6.69095 8.29604L11.4078 19.9707L6.45527 19.9799L8.27185 15.2865L7.17427 12.5814L4.0623 20.6216C3.80838 21.2776 4.29327 21.9839 4.99673 21.9826L19.0069 21.9567C19.7112 21.9554 20.1935 21.246 19.9357 20.5906L12.8789 2.65137C12.5454 1.80363 11.3445 1.80692 11.0157 2.65648L8.97102 7.93924L10.0553 10.6788Z" fill="black"/>
</g>
<defs>
<clipPath id="clip0_5_242">
<rect width="24" height="24" fill="white"/>
</clipPath>
</defs>
</svg>
