<svg width="24" height="24" viewBox="0 0 24 24" fill="none" xmlns="http://www.w3.org/2000/svg">
<g clip-path="url(#clip0_5_357)">
<path fill-rule="evenodd" clip-rule="evenodd" d="M12.1265 2.00003C9.91734 2.00003 8.12648 3.79089 8.12648 6.00003V11C8.12648 13.2092 9.91734 15 12.1265 15C14.3356 15 16.1265 13.2092 16.1265 11V6.00003C16.1265 3.7909 14.3356 2.00003 12.1265 2.00003ZM5.58434 11.5C5.00621 11.5 4.5424 11.9917 4.66185 12.5573C5.32002 15.6741 7.91375 18.0771 11.1265 18.4497V20.0004H10.1265C9.57423 20.0004 9.12652 20.4481 9.12652 21.0004C9.12652 21.5527 9.57423 22.0004 10.1265 22.0004H11.1265H13.1265H14.1265C14.6788 22.0004 15.1265 21.5527 15.1265 21.0004C15.1265 20.4481 14.6788 20.0004 14.1265 20.0004H13.1265V18.416C16.2218 17.9497 18.6973 15.5918 19.3381 12.5573C19.4575 11.9917 18.9937 11.5 18.4156 11.5H18.3915C17.874 11.5 17.4516 11.899 17.3203 12.3996C16.7013 14.7593 14.5539 16.5 12 16.5C9.44602 16.5 7.29865 14.7593 6.6796 12.3996C6.54829 11.899 6.12595 11.5 5.60844 11.5H5.58434Z" fill="black"/>
</g>
<defs>
<clipPath id="clip0_5_357">
<rect width="24" height="24" fill="white"/>
</clipPath>
</defs>
</svg>
