<svg width="24" height="24" viewBox="0 0 24 24" fill="none" xmlns="http://www.w3.org/2000/svg">
<g clip-path="url(#clip0_109_123)">
<path fill-rule="evenodd" clip-rule="evenodd" d="M21.5749 12.64C22.0069 12.208 22.0069 11.5077 21.5749 11.0758L19.9114 9.4122C19.9683 9.28652 20 9.14696 20 9V5C20 4.44771 19.5523 4 19 4H18C17.4477 4 17 4.44771 17 5V6.50084L12.8532 2.35402L12.8479 2.34882L12.8425 2.34336C12.4165 1.9173 11.7257 1.9173 11.2996 2.34335L11.29 2.35298L11.289 2.35402L11.2879 2.35506L2.41443 11.2286C1.98837 11.6546 1.98837 12.3454 2.41443 12.7714C2.84048 13.1975 3.53126 13.1975 3.95732 12.7714L4 12.7288V21C4 21.5523 4.44772 22 5 22H19C19.5523 22 20 21.5523 20 21V12.6293L20.0107 12.64C20.4426 13.0719 21.143 13.0719 21.5749 12.64ZM6 11V20H9V18V17V15C9 14.4477 9.44772 14 10 14H14C14.5523 14 15 14.4477 15 15V17V18V20H18V11C18 10.8885 18.0182 10.7813 18.0519 10.6812L12.0497 4.67902L5.97057 10.7582C5.9898 10.8356 6 10.9166 6 11Z" fill="black"/>
</g>
<defs>
<clipPath id="clip0_109_123">
<rect width="24" height="24" fill="white"/>
</clipPath>
</defs>
</svg>
